<svg width="12" height="12" viewBox="0 0 12 12" fill="none" xmlns="http://www.w3.org/2000/svg">
<path d="M5.86745 0.710938C4.78047 0.710938 3.7179 1.03326 2.81411 1.63716C1.91032 2.24105 1.2059 3.09939 0.789932 4.10363C0.373963 5.10787 0.265127 6.2129 0.477186 7.279C0.689245 8.34509 1.21268 9.32436 1.98129 10.093C2.7499 10.8616 3.72917 11.385 4.79526 11.5971C5.86135 11.8091 6.96639 11.7003 7.97063 11.2843C8.97487 10.8684 9.8332 10.1639 10.4371 9.26014C11.041 8.35635 11.3633 7.29378 11.3633 6.2068C11.3618 4.74968 10.7823 3.35268 9.75192 2.32234C8.72157 1.292 7.32457 0.712476 5.86745 0.710938ZM8.28035 6.50591L6.58931 8.19694C6.50999 8.27627 6.4024 8.32084 6.29021 8.32084C6.17803 8.32084 6.07044 8.27627 5.99111 8.19694C5.91178 8.11762 5.86722 8.01003 5.86722 7.89784C5.86722 7.78566 5.91178 7.67807 5.99111 7.59874L6.96081 6.62956H3.75366C3.64153 6.62956 3.534 6.58502 3.45472 6.50574C3.37544 6.42646 3.3309 6.31893 3.3309 6.2068C3.3309 6.09468 3.37544 5.98715 3.45472 5.90787C3.534 5.82859 3.64153 5.78405 3.75366 5.78405H6.96081L5.99111 4.81487C5.91178 4.73554 5.86722 4.62795 5.86722 4.51577C5.86722 4.40358 5.91178 4.29599 5.99111 4.21667C6.07044 4.13734 6.17803 4.09277 6.29021 4.09277C6.4024 4.09277 6.50999 4.13734 6.58931 4.21667L8.28035 5.9077C8.31966 5.94697 8.35084 5.99359 8.37211 6.04491C8.39339 6.09624 8.40434 6.15125 8.40434 6.2068C8.40434 6.26236 8.39339 6.31737 8.37211 6.3687C8.35084 6.42002 8.31966 6.46664 8.28035 6.50591Z" fill="#FF6969"/>
</svg>
