<svg width="17" height="20" viewBox="0 0 17 20" fill="none" xmlns="http://www.w3.org/2000/svg">
<path fill-rule="evenodd" clip-rule="evenodd" d="M8.4766 0C5.40886 0 2.92197 2.4744 2.92197 5.52672V8.60396C2.92197 9.08705 2.71987 9.54835 2.36416 9.87716L0.885838 11.2437C-0.559977 12.5802 -0.174541 14.9414 1.59504 15.7791C2.48113 16.1986 3.39734 16.5334 4.33146 16.7834C4.35579 16.8387 4.38313 16.8988 4.41356 16.963C4.56595 17.2842 4.8008 17.7167 5.13025 18.1538C5.7804 19.0164 6.88395 20 8.5193 20C10.1547 20 11.2583 19.0164 11.9084 18.1538C12.2379 17.7167 12.4727 17.2842 12.6251 16.963C12.655 16.9 12.6818 16.8409 12.7058 16.7865C13.6314 16.5388 14.5394 16.2071 15.418 15.7912C17.2056 14.945 17.5518 12.5613 16.0783 11.2461L14.5401 9.87326C14.1741 9.54665 13.9689 9.07797 13.9776 8.58893L14.0304 5.62463C14.0854 2.53448 11.5828 0 8.4766 0ZM10.7031 17.1883C9.2538 17.3846 7.78319 17.3836 6.33398 17.1861C6.34495 17.201 6.35605 17.2159 6.36729 17.2308C6.87667 17.9066 7.57705 18.4615 8.5193 18.4615C9.4616 18.4615 10.162 17.9066 10.6714 17.2308C10.682 17.2166 10.6926 17.2024 10.7031 17.1883Z" fill="white"/>
</svg>
