<svg width="10" height="11" viewBox="0 0 10 11" fill="none" xmlns="http://www.w3.org/2000/svg">
<path d="M8.95062 1.42634H7.80932V1.05008C7.80932 0.950294 7.76923 0.854592 7.69789 0.78403C7.62654 0.713469 7.52978 0.673828 7.42888 0.673828C7.32798 0.673828 7.23122 0.713469 7.15987 0.78403C7.08853 0.854592 7.04845 0.950294 7.04845 1.05008V1.42634H3.2441V1.05008C3.2441 0.950294 3.20402 0.854592 3.13267 0.78403C3.06133 0.713469 2.96456 0.673828 2.86366 0.673828C2.76277 0.673828 2.666 0.713469 2.59466 0.78403C2.52331 0.854592 2.48323 0.950294 2.48323 1.05008V1.42634H1.34192C1.14013 1.42634 0.946599 1.50562 0.803908 1.64674C0.661217 1.78786 0.581055 1.97927 0.581055 2.17884V9.70393C0.581055 9.90351 0.661217 10.0949 0.803908 10.236C0.946599 10.3772 1.14013 10.4564 1.34192 10.4564H8.95062C9.15242 10.4564 9.34595 10.3772 9.48864 10.236C9.63133 10.0949 9.71149 9.90351 9.71149 9.70393V2.17884C9.71149 1.97927 9.63133 1.78786 9.48864 1.64674C9.34595 1.50562 9.15242 1.42634 8.95062 1.42634ZM2.48323 2.93135V2.5551C2.48323 2.45531 2.52331 2.35961 2.59466 2.28905C2.666 2.21849 2.76277 2.17884 2.86366 2.17884C2.96456 2.17884 3.06133 2.21849 3.13267 2.28905C3.20402 2.35961 3.2441 2.45531 3.2441 2.5551V2.93135C3.2441 3.03114 3.20402 3.12684 3.13267 3.19741C3.06133 3.26797 2.96456 3.30761 2.86366 3.30761C2.76277 3.30761 2.666 3.26797 2.59466 3.19741C2.52331 3.12684 2.48323 3.03114 2.48323 2.93135ZM6.40932 7.77892C6.04495 8.07743 5.65019 8.33766 5.23139 8.55541C5.20497 8.56849 5.17582 8.5753 5.14627 8.5753C5.11672 8.5753 5.08758 8.56849 5.06115 8.55541C4.64236 8.33766 4.24759 8.07743 3.88323 7.77892C3.08051 7.11718 2.67345 6.43569 2.67345 5.75326C2.67357 5.46539 2.76907 5.18549 2.94533 4.9564C3.12158 4.72731 3.36888 4.56165 3.64938 4.48477C3.92988 4.40789 4.22812 4.42404 4.49846 4.53073C4.7688 4.63742 4.99635 4.82879 5.14627 5.07553C5.2962 4.82879 5.52374 4.63742 5.79408 4.53073C6.06442 4.42404 6.36266 4.40789 6.64316 4.48477C6.92366 4.56165 7.17096 4.72731 7.34722 4.9564C7.52347 5.18549 7.61897 5.46539 7.6191 5.75326C7.6191 6.43569 7.21203 7.11718 6.40932 7.77892ZM7.80932 2.93135C7.80932 3.03114 7.76923 3.12684 7.69789 3.19741C7.62654 3.26797 7.52978 3.30761 7.42888 3.30761C7.32798 3.30761 7.23122 3.26797 7.15987 3.19741C7.08853 3.12684 7.04845 3.03114 7.04845 2.93135V2.5551C7.04845 2.45531 7.08853 2.35961 7.15987 2.28905C7.23122 2.21849 7.32798 2.17884 7.42888 2.17884C7.52978 2.17884 7.62654 2.21849 7.69789 2.28905C7.76923 2.35961 7.80932 2.45531 7.80932 2.5551V2.93135Z" fill="#FF6969"/>
</svg>
