<svg width="16" height="13" viewBox="0 0 16 13" fill="none" xmlns="http://www.w3.org/2000/svg">
<path id="Vector" fill-rule="evenodd" clip-rule="evenodd" d="M16 7.19582V6.29548C16 5.79636 16 5.5468 15.9764 5.32695C15.8042 3.72617 14.7174 2.37972 13.2056 1.89438C12.998 1.82772 12.757 1.77877 12.2751 1.68088C12.2378 1.67332 12.2193 1.66953 12.2012 1.66497C12.0725 1.63243 11.9538 1.56789 11.8557 1.47717C11.8419 1.46443 11.8285 1.45078 11.8016 1.42349L11.7528 1.37393C11.3442 0.958872 11.1398 0.751343 10.9111 0.588559C10.5277 0.31564 10.09 0.131503 9.6288 0.049132C9.35376 8.47504e-08 9.0648 0 8.48688 0H7.51314C6.93518 0 6.64622 8.47504e-08 6.37117 0.049132C5.91004 0.131503 5.47233 0.31564 5.08891 0.588559C4.86022 0.751343 4.65588 0.958872 4.24721 1.37393L4.19841 1.42349C4.17154 1.45078 4.1581 1.46443 4.14433 1.47717C4.04627 1.56789 3.92754 1.63243 3.79883 1.66497C3.78075 1.66953 3.76212 1.67332 3.72486 1.68088C3.24298 1.77877 3.00201 1.82772 2.79438 1.89438C1.28258 2.37972 0.195757 3.72617 0.0236386 5.32695C0 5.5468 0 5.79636 0 6.29549V7.19582C0 8.81725 0 9.62796 0.224626 10.2798C0.626702 11.4463 1.52981 12.3635 2.67842 12.7719C3.32013 13 4.11838 13 5.7149 13H10.2851C11.8816 13 12.6798 13 13.3216 12.7719C14.4702 12.3635 15.3733 11.4463 15.7754 10.2798C16 9.62796 16 8.81725 16 7.19582ZM5 7.3125C5 5.62976 6.34314 4.26562 8 4.26562C9.65688 4.26562 11 5.62976 11 7.3125C11 8.99527 9.65688 10.3594 8 10.3594C6.34314 10.3594 5 8.99527 5 7.3125ZM12.8 4.875C12.8 5.32373 12.4418 5.6875 12 5.6875C11.5582 5.6875 11.2 5.32373 11.2 4.875C11.2 4.42627 11.5582 4.0625 12 4.0625C12.4418 4.0625 12.8 4.42627 12.8 4.875Z" fill="#FF6969"/>
</svg>
