<svg width="20" height="21" viewBox="0 0 20 21" fill="none" xmlns="http://www.w3.org/2000/svg">
<path d="M10 9.25C8.75736 9.25 7.75 10.2574 7.75 11.5C7.75 12.7426 8.75736 13.75 10 13.75C11.2426 13.75 12.25 12.7426 12.25 11.5C12.25 10.2574 11.2426 9.25 10 9.25Z" fill="#FF6969"/>
<path fill-rule="evenodd" clip-rule="evenodd" d="M20 11.3564V10.2483C20 9.63398 20 9.32683 19.9705 9.05624C19.7553 7.08605 18.3968 5.42889 16.507 4.83154C16.2475 4.7495 15.9463 4.68926 15.3439 4.56878C15.2973 4.55947 15.2741 4.55481 15.2515 4.54919C15.0906 4.50914 14.9422 4.42971 14.8196 4.31806C14.8024 4.30237 14.7856 4.28558 14.752 4.25199L14.691 4.19099C14.1802 3.68015 13.9247 3.42473 13.6389 3.22438C13.1596 2.88848 12.6125 2.66185 12.036 2.56047C11.6922 2.5 11.331 2.5 10.6086 2.5H9.39142C8.66898 2.5 8.30777 2.5 7.96396 2.56047C7.38755 2.66185 6.84041 2.88848 6.36114 3.22438C6.07527 3.42473 5.81985 3.68015 5.30901 4.19099L5.24801 4.25199C5.21443 4.28557 5.19762 4.30238 5.18041 4.31806C5.05784 4.42971 4.90943 4.50914 4.74854 4.54919C4.72594 4.55481 4.70265 4.55947 4.65608 4.56878C4.05373 4.68925 3.75251 4.7495 3.49298 4.83154C1.60323 5.42889 0.244696 7.08605 0.0295482 9.05624C0 9.32683 0 9.63398 0 10.2483V11.3564C0 13.352 0 14.3498 0.280783 15.152C0.783377 16.5877 1.91226 17.7166 3.34803 18.2192C4.15016 18.5 5.14798 18.5 7.14363 18.5H12.8564C14.852 18.5 15.8498 18.5 16.652 18.2192C18.0877 17.7166 19.2166 16.5877 19.7192 15.152C20 14.3498 20 13.352 20 11.3564ZM6.25 11.5C6.25 9.42893 7.92893 7.75 10 7.75C12.0711 7.75 13.75 9.42893 13.75 11.5C13.75 13.5711 12.0711 15.25 10 15.25C7.92893 15.25 6.25 13.5711 6.25 11.5ZM16 8.5C16 9.05228 15.5523 9.5 15 9.5C14.4477 9.5 14 9.05228 14 8.5C14 7.94772 14.4477 7.5 15 7.5C15.5523 7.5 16 7.94772 16 8.5Z" fill="#FF6969"/>
</svg>
