<svg width="27" height="26" viewBox="0 0 27 26" fill="none" xmlns="http://www.w3.org/2000/svg">
<path d="M11.04 2.59961H15.96C17.9165 2.5996 19.4666 2.59958 20.6997 2.73142C21.9641 2.86659 23.0136 3.14986 23.9143 3.797C24.4368 4.17226 24.8973 4.62406 25.2797 5.13659C25.5309 5.47323 25.7283 5.83106 25.8841 6.21362C25.8203 6.23791 25.758 6.26905 25.6983 6.30725L17.1785 11.7666C16.1119 12.4501 15.3763 12.9199 14.7628 13.2274C14.1707 13.5243 13.7721 13.6273 13.395 13.6288C13.0179 13.6305 12.6184 13.531 12.0235 13.2395C11.4072 12.9374 10.6674 12.4741 9.59449 11.8L1.03577 6.42286C1.20235 5.96069 1.4239 5.5339 1.72039 5.13659C2.10285 4.62406 2.56332 4.17226 3.08566 3.797C3.98649 3.14986 5.03594 2.86659 6.30032 2.73142C7.53335 2.59958 9.08351 2.5996 11.04 2.59961Z" fill="#FF6969"/>
<path d="M0.614372 8.48264C0.499978 9.66033 0.499988 11.1216 0.5 12.9411V13.0579C0.499987 14.9776 0.499977 16.4986 0.63433 17.7084C0.7721 18.949 1.06081 19.9787 1.72037 20.8626C2.10282 21.375 2.56329 21.8269 3.08563 22.2021C3.98646 22.8492 5.03591 23.1325 6.30029 23.2677C7.53332 23.3995 9.08346 23.3995 11.0399 23.3995H15.96C17.9165 23.3995 19.4667 23.3995 20.6997 23.2677C21.964 23.1325 23.0135 22.8492 23.9143 22.2021C24.4368 21.8269 24.8972 21.375 25.2797 20.8626C25.9392 19.9787 26.2279 18.949 26.3657 17.7084C26.5 16.4986 26.5 14.9777 26.5 13.058V12.9411C26.5 11.0215 26.5 9.50045 26.3657 8.29065C26.3631 8.26791 26.3605 8.24525 26.3579 8.22266L18.2242 13.4346C17.2137 14.082 16.3898 14.6101 15.6706 14.9706C14.9195 15.3472 14.2046 15.5829 13.4039 15.5864C12.6032 15.5899 11.8863 15.3606 11.1317 14.9906C10.4092 14.6365 9.58046 14.1157 8.56413 13.4773L0.614372 8.48264Z" fill="#FF6969"/>
</svg>
