<svg width="27" height="26" viewBox="0 0 27 26" fill="none" xmlns="http://www.w3.org/2000/svg">
<path fill-rule="evenodd" clip-rule="evenodd" d="M15.96 2.59961H11.04C9.08348 2.5996 7.53332 2.59958 6.30029 2.73142C5.03591 2.86659 3.98646 3.14986 3.08563 3.797C2.56329 4.17226 2.10282 4.62406 1.72037 5.13659C1.06081 6.02043 0.7721 7.05013 0.63433 8.29072C0.499976 9.50054 0.499987 11.0215 0.5 12.9412V13.058C0.499987 14.9777 0.499976 16.4987 0.63433 17.7085C0.7721 18.9491 1.06081 19.9788 1.72037 20.8627C2.10282 21.3751 2.56329 21.827 3.08563 22.2022C3.98646 22.8493 5.03591 23.1326 6.30029 23.2678C7.53332 23.3996 9.08346 23.3996 11.0399 23.3996H15.96C17.9165 23.3996 19.4666 23.3996 20.6997 23.2678C21.964 23.1326 23.0135 22.8493 23.9143 22.2022C24.4368 21.827 24.8972 21.3751 25.2797 20.8627C25.9392 19.9788 26.2279 18.9491 26.3657 17.7085C26.5 16.4987 26.5 14.9778 26.5 13.0581V12.9412C26.5 11.0216 26.5 9.50053 26.3657 8.29072C26.2279 7.05013 25.9392 6.02043 25.2797 5.13659C24.8972 4.62406 24.4368 4.17226 23.9143 3.797C23.0135 3.14986 21.964 2.86659 20.6997 2.73142C19.4666 2.59958 17.9165 2.5996 15.96 2.59961ZM4.26433 5.37653C4.76709 5.01533 5.42293 4.79445 6.51641 4.67754C7.62877 4.55862 9.07017 4.55725 11.0995 4.55725H15.9004C17.9299 4.55725 19.3712 4.55862 20.4836 4.67754C21.577 4.79445 22.2329 5.01533 22.7357 5.37653C23.0931 5.63328 23.4081 5.9424 23.6698 6.29308C23.9057 6.60913 24.0828 6.98684 24.211 7.49963L17.1318 11.8865C16.0785 12.5392 15.3526 12.9876 14.7481 13.2805C14.1647 13.5633 13.7727 13.6607 13.4029 13.6607C13.033 13.6607 12.641 13.5633 12.0576 13.2805C11.4531 12.9876 10.7272 12.5392 9.67388 11.8865L2.7639 7.60447C2.89373 7.03769 3.07855 6.6303 3.33019 6.29308C3.59187 5.9424 3.90692 5.63328 4.26433 5.37653ZM2.52962 9.77469C2.49579 10.652 2.4952 11.7036 2.4952 12.9996C2.4952 14.9908 2.49659 16.4051 2.61779 17.4964C2.73695 18.5693 2.96207 19.2128 3.33019 19.7062C3.59187 20.0568 3.90692 20.3659 4.26433 20.6227C4.76709 20.9838 5.42293 21.2048 6.51641 21.3217C7.62877 21.4406 9.07017 21.4419 11.0995 21.4419H15.9004C17.9299 21.4419 19.3712 21.4406 20.4836 21.3217C21.577 21.2048 22.2329 20.9838 22.7357 20.6227C23.0931 20.3659 23.4081 20.0568 23.6698 19.7062C24.0379 19.2128 24.2631 18.5693 24.3822 17.4964C24.5035 16.4051 24.5048 14.9908 24.5048 12.9996C24.5048 11.6452 24.5041 10.5578 24.4656 9.65726L18.1524 13.5695C17.1548 14.1877 16.341 14.6921 15.6317 15.0358C14.8907 15.3949 14.1876 15.6183 13.4029 15.6183C12.6181 15.6183 11.9149 15.3949 11.174 15.0358C10.4648 14.6921 9.65091 14.1877 8.65334 13.5695L2.52962 9.77469Z" fill="#9C9CA1" fill-opacity="0.7"/>
</svg>
