<svg width="14" height="14" viewBox="0 0 14 14" fill="none" xmlns="http://www.w3.org/2000/svg">
<path fill-rule="evenodd" clip-rule="evenodd" d="M0.699951 7.0002C0.699951 3.5208 3.52056 0.700195 6.99995 0.700195C10.4794 0.700195 13.3 3.5208 13.3 7.0002C13.3 10.4796 10.4794 13.3002 6.99995 13.3002C3.52056 13.3002 0.699951 10.4796 0.699951 7.0002ZM7.52495 4.5502C7.52495 4.26025 7.28989 4.0252 6.99995 4.0252C6.71 4.0252 6.47495 4.26025 6.47495 4.5502V7.3502C6.47495 7.64014 6.71 7.8752 6.99995 7.8752C7.28989 7.8752 7.52495 7.64014 7.52495 7.3502V4.5502ZM6.99995 10.1502C7.38656 10.1502 7.69995 9.83681 7.69995 9.4502C7.69995 9.06359 7.38656 8.7502 6.99995 8.7502C6.61335 8.7502 6.29995 9.06359 6.29995 9.4502C6.29995 9.83681 6.61335 10.1502 6.99995 10.1502Z" fill="#FF6969"/>
</svg>
