<svg width="26" height="26" viewBox="0 0 26 26" fill="none" xmlns="http://www.w3.org/2000/svg">
<path d="M23.3319 16.4483C24.9897 17.3472 26.001 18.9469 26.001 20.6708V21.0593C26.0011 21.2068 26.0011 21.3386 25.9863 21.4585C25.8609 22.4737 24.9574 23.2752 23.813 23.3867C23.678 23.3998 23.5293 23.3997 23.3632 23.3997H18.9893C18.7833 23.3997 18.6802 23.3997 18.6372 23.3409C18.5941 23.2823 18.5894 23.1646 18.7114 23.0009C20.1832 21.0252 19.6371 17.4568 18.4207 15.6472C18.3011 15.4693 18.2745 15.3615 18.3193 15.2979C18.3643 15.2344 18.4715 15.2385 18.6862 15.2468C20.1331 15.3029 22.0491 15.7529 23.3319 16.4483Z" fill="#FF6969"/>
<path fill-rule="evenodd" clip-rule="evenodd" d="M9.08039 2.59961C6.43966 2.59961 4.08545 4.45904 4.08545 6.99418C4.08545 9.52934 6.43966 11.3888 9.08039 11.3888C11.7211 11.3888 14.0753 9.52934 14.0753 6.99418C14.0753 4.45904 11.7211 2.59961 9.08039 2.59961ZM19.1023 6.16531C16.8845 6.16531 14.8733 7.73067 14.8733 9.90305C14.8733 12.0754 16.8845 13.6408 19.1023 13.6408C21.32 13.6408 23.3312 12.0754 23.3312 9.90305C23.3312 7.73067 21.32 6.16531 19.1023 6.16531Z" fill="#FF6969"/>
<path fill-rule="evenodd" clip-rule="evenodd" d="M14.8239 13.8933C11.2979 11.7817 6.86265 11.7817 3.33675 13.8933C1.26412 15.1346 2.17004e-05 17.3435 2.17004e-05 19.7239L1.06399e-05 20.2724C-6.98915e-05 20.487 -0.000136038 20.6631 0.0176145 20.8217C0.168477 22.17 1.25476 23.2345 2.63049 23.3823C2.79235 23.3998 2.97209 23.3998 3.19108 23.3996H14.9695C15.1884 23.3998 15.3682 23.3998 15.5301 23.3823C16.9059 23.2345 17.9921 22.17 18.1429 20.8217C18.1607 20.6631 18.1606 20.487 18.1606 20.2724V19.7239C18.1606 17.3435 16.8965 15.1346 14.8239 13.8933Z" fill="#FF6969"/>
</svg>
