<svg width="11" height="11" viewBox="0 0 11 11" fill="none" xmlns="http://www.w3.org/2000/svg">
<g id="&#235;&#140;&#147;&#234;&#184;&#128;">
<path id="Vector" d="M6.13462 5.49827C6.13462 5.6238 6.0974 5.74651 6.02766 5.85088C5.95793 5.95525 5.85882 6.0366 5.74286 6.08464C5.6269 6.13267 5.4993 6.14524 5.37619 6.12075C5.25309 6.09626 5.14001 6.03582 5.05126 5.94705C4.96251 5.85829 4.90207 5.74521 4.87758 5.62209C4.85309 5.49898 4.86566 5.37136 4.91369 5.25539C4.96172 5.13942 5.04307 5.0403 5.14743 4.97056C5.25179 4.90082 5.37449 4.8636 5.5 4.8636C5.66831 4.8636 5.82973 4.93046 5.94874 5.04949C6.06775 5.16851 6.13462 5.32994 6.13462 5.49827ZM3.17308 4.8636C3.04756 4.8636 2.92487 4.90082 2.8205 4.97056C2.71614 5.0403 2.6348 5.13942 2.58677 5.25539C2.53874 5.37136 2.52617 5.49898 2.55066 5.62209C2.57514 5.74521 2.63558 5.85829 2.72434 5.94705C2.81309 6.03582 2.92617 6.09626 3.04927 6.12075C3.17237 6.14524 3.29997 6.13267 3.41593 6.08464C3.53189 6.0366 3.63101 5.95525 3.70074 5.85088C3.77047 5.74651 3.80769 5.6238 3.80769 5.49827C3.80769 5.32994 3.74083 5.16851 3.62182 5.04949C3.5028 4.93046 3.34139 4.8636 3.17308 4.8636ZM7.82692 4.8636C7.70141 4.8636 7.57871 4.90082 7.47435 4.97056C7.36999 5.0403 7.28865 5.13942 7.24062 5.25539C7.19258 5.37136 7.18002 5.49898 7.2045 5.62209C7.22899 5.74521 7.28943 5.85829 7.37818 5.94705C7.46694 6.03582 7.58001 6.09626 7.70312 6.12075C7.82622 6.14524 7.95382 6.13267 8.06978 6.08464C8.18574 6.0366 8.28485 5.95525 8.35459 5.85088C8.42432 5.74651 8.46154 5.6238 8.46154 5.49827C8.46154 5.32994 8.39468 5.16851 8.27566 5.04949C8.15665 4.93046 7.99523 4.8636 7.82692 4.8636ZM11 5.49827C11.0002 6.44792 10.7546 7.38145 10.287 8.20799C9.81942 9.03453 9.14584 9.72593 8.33181 10.2149C7.51779 10.7038 6.59105 10.9737 5.6418 10.9982C4.69256 11.0227 3.75315 10.8009 2.915 10.3546L1.11428 10.9549C0.96519 11.0046 0.8052 11.0118 0.65224 10.9757C0.499281 10.9396 0.359397 10.8616 0.248267 10.7505C0.137138 10.6394 0.0591538 10.4995 0.0230564 10.3465C-0.0130411 10.1935 -0.0058256 10.0335 0.0438941 9.88441L0.644134 8.08352C0.251809 7.34583 0.0326811 6.52845 0.00338321 5.69342C-0.0259147 4.85839 0.135388 4.02766 0.475046 3.26428C0.814705 2.50091 1.32379 1.82495 1.96367 1.28772C2.60354 0.75049 3.35739 0.366108 4.16798 0.163751C4.97857 -0.0386055 5.8246 -0.0536193 6.64187 0.119849C7.45913 0.293318 8.22613 0.65071 8.88466 1.1649C9.54319 1.67909 10.0759 2.33655 10.4425 3.0874C10.809 3.83824 10.9997 4.66273 11 5.49827ZM10.1538 5.49827C10.1536 4.78433 9.98921 4.08 9.67328 3.43977C9.35734 2.79955 8.89837 2.2406 8.33187 1.80617C7.76537 1.37173 7.10653 1.07345 6.40632 0.934413C5.70612 0.795375 4.98331 0.8193 4.29383 1.00434C3.60434 1.18938 2.96666 1.53057 2.43013 2.00152C1.89359 2.47247 1.47258 3.06055 1.19967 3.72026C0.926752 4.37997 0.80925 5.09363 0.856252 5.80603C0.903253 6.51843 1.1135 7.21046 1.47072 7.82859C1.5007 7.88049 1.51932 7.93816 1.52534 7.99779C1.53135 8.05742 1.52463 8.11765 1.50562 8.17449L0.846154 10.1526L2.82404 9.49303C2.86712 9.47834 2.91232 9.47083 2.95784 9.47082C3.03214 9.47095 3.1051 9.49065 3.16937 9.52794C3.87687 9.93731 4.67969 10.1531 5.49706 10.1536C6.31443 10.1541 7.11753 9.93936 7.82553 9.53088C8.53354 9.12239 9.12149 8.53463 9.53022 7.82672C9.93894 7.11881 10.154 6.31572 10.1538 5.49827Z" fill="#9C9CA1" fill-opacity="0.7"/>
</g>
</svg>
