<svg width="26" height="26" viewBox="0 0 26 26" fill="none" xmlns="http://www.w3.org/2000/svg">
<path fill-rule="evenodd" clip-rule="evenodd" d="M9.08107 2.59961C6.43038 2.59961 4.04492 4.47043 4.04492 7.04629C4.04492 9.62215 6.43038 11.493 9.08107 11.493C11.7318 11.493 14.1173 9.62215 14.1173 7.04629C14.1173 4.47043 11.7318 2.59961 9.08107 2.59961ZM6.02699 7.04629C6.02699 5.78467 7.26546 4.54743 9.08107 4.54743C10.8967 4.54743 12.1351 5.78467 12.1351 7.04629C12.1351 8.3079 10.8967 9.54515 9.08107 9.54515C7.26546 9.54515 6.02699 8.3079 6.02699 7.04629Z" fill="#9C9CA1" fill-opacity="0.7"/>
<path fill-rule="evenodd" clip-rule="evenodd" d="M19.0042 6.13477C16.7725 6.13477 14.7266 7.71395 14.7266 9.9303C14.7266 12.1466 16.7725 13.7258 19.0042 13.7258C21.2359 13.7258 23.2819 12.1466 23.2819 9.9303C23.2819 7.71395 21.2359 6.13477 19.0042 6.13477ZM16.7087 9.9303C16.7087 9.02799 17.6079 8.08258 19.0042 8.08258C20.4005 8.08258 21.2999 9.02799 21.2999 9.9303C21.2999 10.8326 20.4005 11.778 19.0042 11.778C17.6079 11.778 16.7087 10.8326 16.7087 9.9303Z" fill="#9C9CA1" fill-opacity="0.7"/>
<path fill-rule="evenodd" clip-rule="evenodd" d="M3.34775 13.8094C1.26874 15.056 2.2733e-05 17.2748 2.2733e-05 19.6667L1.03156e-05 20.2144C-6.89594e-05 20.424 -0.000136596 20.6028 0.0179995 20.7651C0.17219 22.1446 1.28202 23.2322 2.68528 23.3832C2.85038 23.401 3.03242 23.4008 3.24613 23.4008H14.9163C15.1301 23.4008 15.3122 23.401 15.4773 23.3832C16.8805 23.2322 17.9904 22.1446 18.1446 20.7651C18.1627 20.6028 18.1627 20.424 18.1626 20.2144V19.6667C18.1626 17.2748 16.8939 15.056 14.8148 13.8094C11.295 11.6989 6.86758 11.6989 3.34775 13.8094ZM1.9821 19.6667C1.9821 17.9549 2.89011 16.3655 4.38012 15.4721C7.26604 13.7418 10.8965 13.7418 13.7825 15.4721C15.2724 16.3655 16.1805 17.9549 16.1805 19.6667V20.1664C16.1805 20.4491 16.179 20.5111 16.1743 20.5524C16.1218 21.0224 15.7433 21.3951 15.2616 21.4469C15.2191 21.4515 15.1555 21.453 14.8677 21.453H3.29489C3.00704 21.453 2.94351 21.4515 2.901 21.4469C2.4193 21.3951 2.04074 21.0224 1.98822 20.5524C1.98361 20.5111 1.9821 20.4491 1.9821 20.1664V19.6667Z" fill="#9C9CA1" fill-opacity="0.7"/>
<path d="M23.2837 15.5061C21.9354 14.7381 20.4129 14.3654 18.8984 14.3834C18.764 14.3851 18.6295 14.3898 18.4952 14.3976C17.9502 14.4291 17.5319 14.8887 17.5643 15.4272C17.5966 15.9655 18.067 16.3735 18.6118 16.342C18.7153 16.336 18.819 16.3324 18.9226 16.3311C20.092 16.3172 21.2609 16.6053 22.2899 17.1913C23.3789 17.8117 24.0173 18.8973 24.0173 20.0405V20.3807C24.0175 20.5248 24.0162 20.5796 24.0117 20.6172C23.9645 21.0181 23.61 21.3925 23.0848 21.4462C23.034 21.4514 22.9656 21.4524 22.8134 21.4524H19.6043C19.0585 21.4524 18.6134 21.8869 18.6134 22.4263C18.6134 22.9656 19.0585 23.4002 19.6043 23.4002H22.8325C22.956 23.4004 23.125 23.4005 23.2898 23.3836C24.6686 23.2427 25.8189 22.2161 25.9806 20.8409C25.9997 20.6789 25.9996 20.5138 25.9994 20.3997V20.3981V20.3796V20.0405C25.9994 18.1692 24.9545 16.4577 23.2837 15.5061Z" fill="#9C9CA1" fill-opacity="0.7"/>
</svg>
