<svg width="10" height="13" viewBox="0 0 10 13" fill="none" xmlns="http://www.w3.org/2000/svg">
<path fill-rule="evenodd" clip-rule="evenodd" d="M5.60256 0.5H4.34476C3.99563 0.499991 3.69906 0.499982 3.45818 0.524112C3.20414 0.549559 2.96105 0.60559 2.74138 0.750982C2.59008 0.851119 2.4593 0.977478 2.35566 1.12366C2.20518 1.33591 2.14719 1.57078 2.12085 1.81623C2.10517 1.96242 2.09934 2.12982 2.09718 2.3177C2.05593 2.32232 2.01549 2.32728 1.97583 2.33262C1.3869 2.41189 0.895131 2.58185 0.523318 2.97932C0.151506 3.37678 0.0260432 3.86664 0.00376818 4.44074C-0.0177443 4.99513 0.0558806 5.6974 0.147543 6.5717L0.399681 8.97698C0.475674 9.70202 0.537118 10.2883 0.647993 10.7478C0.76335 11.2259 0.9443 11.6236 1.29903 11.9334C1.65375 12.2431 2.08154 12.3771 2.58544 12.4398C3.06979 12.5 3.67966 12.5 4.43388 12.5H5.68419C6.459 12.5 7.08494 12.5 7.58069 12.4375C8.09619 12.3725 8.53281 12.2337 8.89063 11.9121C9.24844 11.5905 9.42325 11.1797 9.52757 10.6876C9.62782 10.2144 9.673 9.61118 9.72888 8.86454L9.909 6.45903C9.97294 5.6055 10.0243 4.91921 9.98788 4.37803C9.95013 3.81715 9.815 3.34045 9.44494 2.95608C9.07482 2.57172 8.5925 2.40706 8.01625 2.33022C7.96232 2.32303 7.90694 2.31654 7.85006 2.31068C7.84788 2.12565 7.842 1.9606 7.8265 1.81623C7.80013 1.57078 7.74219 1.33591 7.59169 1.12366C7.48806 0.977478 7.35725 0.851119 7.20594 0.750982C6.98631 0.60559 6.74319 0.549559 6.48919 0.524112C6.24831 0.499982 5.95175 0.499991 5.60256 0.5ZM6.9405 2.26257C6.93813 2.12002 6.93313 2.0049 6.92256 1.90677C6.90388 1.73229 6.87169 1.66186 6.84194 1.61988C6.80175 1.56319 6.75106 1.5142 6.69238 1.47537C6.64894 1.44661 6.57606 1.41557 6.39544 1.39748C6.207 1.3786 5.958 1.37805 5.5795 1.37805H4.36783C3.98933 1.37805 3.74033 1.3786 3.55189 1.39748C3.3713 1.41557 3.29841 1.44661 3.25496 1.47537C3.19629 1.5142 3.14558 1.56319 3.10539 1.61988C3.07563 1.66186 3.0435 1.73229 3.02478 1.90677C3.01421 2.0053 3.00919 2.12096 3.00681 2.26431C3.36018 2.25609 3.75216 2.25609 4.18461 2.2561H5.86231C6.25538 2.25609 6.61425 2.25609 6.9405 2.26257ZM3.74763 5.29269C3.99848 5.29269 4.20184 5.48924 4.20184 5.73171V8.65856C4.20184 8.90102 3.99848 9.09758 3.74763 9.09758C3.49677 9.09758 3.29341 8.90102 3.29341 8.65856V5.73171C3.29341 5.48924 3.49677 5.29269 3.74763 5.29269ZM6.62525 5.73171C6.62525 5.48924 6.42188 5.29269 6.171 5.29269C5.92019 5.29269 5.71681 5.48924 5.71681 5.73171V8.65856C5.71681 8.90102 5.92019 9.09758 6.171 9.09758C6.42188 9.09758 6.62525 8.90102 6.62525 8.65856V5.73171Z" fill="#FF6969"/>
</svg>
