<svg width="13" height="11" viewBox="0 0 13 11" fill="none" xmlns="http://www.w3.org/2000/svg">
<g id="&#236;&#162;&#139;&#236;&#149;&#132;&#236;&#154;&#148;">
<path id="&#236;&#162;&#139;&#236;&#149;&#132;&#236;&#154;&#148;/Active" d="M13 3.55292C13 7.56428 6.97647 10.8112 6.71995 10.9453C6.65235 10.9812 6.57677 11 6.5 11C6.42323 11 6.34765 10.9812 6.28004 10.9453C6.02353 10.8112 0 7.56428 0 3.55292C0.00107525 2.61095 0.380517 1.70787 1.05508 1.0418C1.72964 0.375727 2.64424 0.00106171 3.59821 0C4.79665 0 5.84594 0.50887 6.5 1.36902C7.15406 0.50887 8.20335 0 9.40179 0C10.3558 0.00106171 11.2704 0.375727 11.9449 1.0418C12.6195 1.70787 12.9989 2.61095 13 3.55292Z" fill="#FF6969"/>
</g>
</svg>
