<svg width="26" height="26" viewBox="0 0 26 26" fill="none" xmlns="http://www.w3.org/2000/svg">
<path fill-rule="evenodd" clip-rule="evenodd" d="M14.0614 3.34737C13.3603 3.21021 12.6393 3.21021 11.9382 3.34737C10.9883 3.53319 10.0831 4.07654 7.85571 5.45711C5.85018 6.70016 5.04903 7.21141 4.49091 7.89425C4.07857 8.39873 3.75907 8.97217 3.54723 9.58797C3.2605 10.4215 3.24799 11.3706 3.24799 13.727V19.6487C3.24799 21.3643 4.64127 22.7551 6.35997 22.7551C7.5145 22.7551 8.45042 21.8208 8.45042 20.6684V17.7793C8.45042 15.2712 10.4873 13.238 12.9998 13.238C15.5123 13.238 17.5492 15.2712 17.5492 17.7793V20.6684C17.5492 21.8208 18.4851 22.7551 19.6397 22.7551C21.3583 22.7551 22.7516 21.3643 22.7516 19.6487V13.727C22.7516 11.3706 22.7391 10.4215 22.4524 9.58797C22.2406 8.97217 21.921 8.39873 21.5087 7.89425C20.9506 7.21141 20.1494 6.70016 18.1439 5.45711C15.9165 4.07654 15.0113 3.53319 14.0614 3.34737ZM11.5635 1.43898C12.512 1.25341 13.4876 1.25341 14.4362 1.43898C15.7796 1.70183 17.0033 2.46059 18.9925 3.69398C19.0514 3.73056 19.1112 3.76757 19.1716 3.80498C19.2255 3.83843 19.2789 3.87149 19.3316 3.90419C21.1252 5.01545 22.229 5.69938 23.0181 6.66485C23.5761 7.34739 24.0083 8.12323 24.2948 8.95638C24.7003 10.1349 24.7001 11.4318 24.6998 13.539C24.6998 13.6009 24.6998 13.6637 24.6998 13.727V19.6487C24.6998 22.4383 22.4343 24.6998 19.6397 24.6998C17.4091 24.6998 15.601 22.8949 15.601 20.6684V17.7793C15.601 16.3452 14.4364 15.1826 12.9998 15.1826C11.5632 15.1826 10.3986 16.3452 10.3986 17.7793V20.6684C10.3986 22.8949 8.59043 24.6998 6.35997 24.6998C3.56533 24.6998 1.29984 22.4383 1.29984 19.6487V13.727C1.29984 13.6637 1.29982 13.6009 1.29982 13.5389C1.29948 11.4318 1.29926 10.1349 1.70468 8.95638C1.99129 8.12323 2.42356 7.34739 2.98143 6.66485C3.77057 5.69938 4.87441 5.01545 6.66798 3.90419C6.72073 3.87149 6.7741 3.83843 6.82806 3.80498C6.88843 3.76757 6.94812 3.73056 7.00711 3.69398C8.99627 2.46059 10.22 1.70183 11.5635 1.43898Z" fill="#9C9CA1" fill-opacity="0.7"/>
</svg>
