<svg width="24" height="24" viewBox="0 0 24 24" fill="none" xmlns="http://www.w3.org/2000/svg">
<path d="M13.4362 0.438983C12.4876 0.253412 11.512 0.253412 10.5635 0.438983C9.21996 0.70183 7.99627 1.46059 6.00711 2.69398L5.66798 2.90419C3.87441 4.01545 2.77057 4.69938 1.98143 5.66485C1.42356 6.34739 0.991295 7.12323 0.704684 7.95638C0.299265 9.13488 0.299475 10.4318 0.299825 12.5389L0.299838 18.6487C0.299838 21.4383 2.56533 23.6998 5.35997 23.6998C7.59043 23.6998 9.39859 21.8949 9.39859 19.6684V16.7793C9.39859 15.3452 10.5632 14.1826 11.9998 14.1826C13.4364 14.1826 14.601 15.3452 14.601 16.7793V19.6684C14.601 21.8949 16.4091 23.6998 18.6397 23.6998C21.4343 23.6998 23.6998 21.4383 23.6998 18.6487V12.539C23.7001 10.4318 23.7003 9.13488 23.2948 7.95638C23.0083 7.12323 22.5761 6.34739 22.0181 5.66485C21.229 4.69938 20.1252 4.01545 18.3316 2.90417L17.9925 2.69398C16.0033 1.46059 14.7796 0.70183 13.4362 0.438983Z" fill="#FF6969"/>
</svg>
