<svg width="80" height="80" viewBox="0 0 80 80" fill="none" xmlns="http://www.w3.org/2000/svg">
<rect width="80" height="80" rx="8" fill="#FF6969" fill-opacity="0.1"/>
<g clip-path="url(#clip0_525_6364)">
<rect x="30.75" y="21.25" width="17.5" height="17.5" rx="2.75" stroke="#FF6969" stroke-width="1.5"/>
<path d="M43.902 35H34.9618C34.2585 35 33.7749 34.2931 34.0298 33.6376L36.241 27.9517C36.5458 27.1681 37.6229 27.0875 38.0408 27.8172L40.5886 32.2658C40.982 32.9528 41.9879 32.9162 42.3523 32.2134C42.7309 31.4833 43.7888 31.4797 44.1483 32.2194L44.8014 33.5628C45.1242 34.227 44.6405 35 43.902 35Z" fill="#FF6969" stroke="#FF6969"/>
<circle cx="43" cy="26.5" r="1.5" fill="#FF6969"/>
</g>
<path d="M24.54 50.96V49.92H25.4V50.96H27.31V51.66H25.4V51.82C25.4 52.3533 25.6 52.8367 26 53.27C26.4 53.6967 26.93 54.0033 27.59 54.19L27.19 54.88C26.6833 54.7333 26.24 54.5067 25.86 54.2C25.48 53.8933 25.19 53.5333 24.99 53.12C24.7967 53.5733 24.5067 53.9667 24.12 54.3C23.74 54.6267 23.29 54.8733 22.77 55.04L22.37 54.36C23.0233 54.16 23.5467 53.83 23.94 53.37C24.34 52.9033 24.54 52.3867 24.54 51.82V51.66H22.61V50.96H24.54ZM23.89 55.6H29.62V58.64H23.89V55.6ZM28.78 57.94V56.29H24.74V57.94H28.78ZM27.07 52.39H28.75V49.96H29.62V55.15H28.75V53.1H27.07V52.39ZM39.0902 55.16V55.86H35.5102V58.76H34.6502V55.86H31.1202V55.16H39.0902ZM32.1102 50.32H32.9702V51.49H37.2202V50.32H38.0802V54.13H32.1102V50.32ZM37.2202 53.43V52.18H32.9702V53.43H37.2202ZM46.6505 49.96V53.55H48.0705V54.27H46.6505V58.76H45.7805V49.96H46.6505ZM39.8105 51.35H41.9905V50.07H42.8705V51.35H45.0005V52.05H39.8105V51.35ZM40.2905 54.78C40.2905 54.3867 40.3838 54.0367 40.5705 53.73C40.7571 53.4233 41.0138 53.1833 41.3405 53.01C41.6671 52.8367 42.0338 52.75 42.4405 52.75C42.8538 52.75 43.2238 52.8367 43.5505 53.01C43.8771 53.1833 44.1338 53.4233 44.3205 53.73C44.5071 54.0367 44.6005 54.3867 44.6005 54.78C44.6005 55.1733 44.5071 55.5267 44.3205 55.84C44.1338 56.1467 43.8771 56.3867 43.5505 56.56C43.2238 56.7267 42.8538 56.81 42.4405 56.81C42.0338 56.81 41.6671 56.7233 41.3405 56.55C41.0138 56.3767 40.7571 56.1367 40.5705 55.83C40.3838 55.5233 40.2905 55.1733 40.2905 54.78ZM41.1205 54.78C41.1205 55.1667 41.2438 55.4833 41.4905 55.73C41.7371 55.97 42.0538 56.09 42.4405 56.09C42.8271 56.09 43.1438 55.97 43.3905 55.73C43.6371 55.4833 43.7605 55.1667 43.7605 54.78C43.7605 54.3933 43.6371 54.0767 43.3905 53.83C43.1438 53.5833 42.8271 53.46 42.4405 53.46C42.0538 53.46 41.7371 53.5833 41.4905 53.83C41.2438 54.0767 41.1205 54.3933 41.1205 54.78ZM55.8307 49.95V58.75H54.9607V49.95H55.8307ZM48.6907 56.44C50.9574 55.3533 52.1774 53.74 52.3507 51.6H49.1007V50.89H53.2307C53.2307 53.73 51.8707 55.81 49.1507 57.13L48.6907 56.44Z" fill="#FF6969"/>
<defs>
<clipPath id="clip0_525_6364">
<rect width="24" height="24" fill="white" transform="translate(27.5 18)"/>
</clipPath>
</defs>
</svg>
