<svg width="87" height="84" viewBox="0 0 87 84" fill="none" xmlns="http://www.w3.org/2000/svg">
<path fill-rule="evenodd" clip-rule="evenodd" d="M40.8149 26.0997C41.0251 28.199 40.9955 29.2291 40.8149 31.24C36.8527 39.9183 30.0334 50.4571 21.9673 53.5144C15.3196 51.4683 6.83041 54.2329 3.11969 60.3681C-1.21377 67.5329 0.959822 76.6758 8.25994 80.9291C15.5601 85.1821 26.201 82.9534 30.5344 75.7888C32.9494 71.7959 31.9859 66.1455 30.5344 62.0815C34.3673 53.7711 47.5771 48.2875 57.949 46.6607C67.9765 49.4417 78.0793 43.8778 83.6503 34.6668C90.2947 23.6812 86.2768 10.3467 75.0832 3.82533C63.8899 -2.69605 49.1729 1.40652 42.5283 12.3924C42.4881 12.4588 42.5676 12.3258 42.5283 12.3924C35.925 12.7677 30.7987 10.7922 27.1075 8.96558C26.2117 6.26775 24.6487 3.674 21.9673 2.11191C16.1025 -1.3049 8.31455 1.49612 4.83311 7.25216C1.35164 13.0082 4.10853 19.2561 9.97336 22.6729C15.2074 25.7224 21.5608 25.3407 25.3941 20.9595C32.487 21.8345 38.9882 24.4258 40.8149 26.0997Z" fill="#FF6969"/>
</svg>
