<svg width="20" height="20" viewBox="0 0 20 20" fill="none" xmlns="http://www.w3.org/2000/svg">
<g id="medal-star">
<path id="Vector" d="M4.4545 6.86817C5.60315 5.70454 7.1185 4.90081 8.81422 4.64247L7.13299 1.9794C6.74821 1.3699 6.07581 1 5.35268 1H1.52656C1.10734 1 0.856787 1.46456 1.08838 1.81241L4.38887 6.76965C4.41132 6.80336 4.43318 6.8362 4.4545 6.86817Z" fill="#FF6969"/>
<path id="Vector_2" d="M11.2036 4.64517C12.8979 4.90727 14.4111 5.71398 15.5572 6.87988C15.581 6.84424 15.6054 6.8075 15.6306 6.76966L18.3902 2.62482C18.8666 1.90929 19.1048 1.55152 18.9561 1.27576C18.8074 1 18.3762 1 17.5139 1H15.8288C14.6926 1 14.1245 1 13.6498 1.26114C13.1751 1.52228 12.8728 2.00113 12.2682 2.9588L11.2036 4.64517Z" fill="#FF6969"/>
<path id="Vector_3" fill-rule="evenodd" clip-rule="evenodd" d="M16.7381 12.2915C16.7381 15.9959 13.7214 18.999 10.0001 18.999C6.27888 18.999 3.26221 15.9959 3.26221 12.2915C3.26221 8.58704 6.27888 5.58398 10.0001 5.58398C13.7214 5.58398 16.7381 8.58704 16.7381 12.2915ZM10.0098 9.43973C9.87304 9.43973 9.79012 9.62363 9.62428 9.99141L9.56382 10.1254C9.32435 10.6565 9.20461 10.9221 8.98011 11.0862C8.75561 11.2502 8.46525 11.2844 7.88454 11.3529L7.74157 11.3697C7.35205 11.4156 7.15729 11.4385 7.11517 11.5659C7.07306 11.6932 7.21603 11.8268 7.50198 12.0941L7.55121 12.1401C8.01053 12.5694 8.2402 12.7841 8.31885 13.0701C8.39751 13.3561 8.30972 13.6573 8.13413 14.2597L8.05939 14.5161C7.94324 14.9145 7.88517 15.1137 7.99187 15.2018C8.09858 15.2898 8.28447 15.1961 8.65624 15.0085L9.0643 14.8027C9.5282 14.5687 9.76017 14.4516 10.0103 14.4506C10.2604 14.4496 10.4933 14.5648 10.9591 14.7951L11.3664 14.9964C11.7373 15.1797 11.9227 15.2714 12.0286 15.1831C12.1345 15.0947 12.0763 14.897 11.9599 14.5014L11.8896 14.2622C11.712 13.6587 11.6232 13.3569 11.7017 13.0701C11.7802 12.7834 12.0105 12.5681 12.471 12.1377L12.5176 12.0941C12.8036 11.8268 12.9465 11.6932 12.9044 11.5659C12.8623 11.4385 12.6675 11.4156 12.278 11.3697L12.135 11.3529C11.5543 11.2844 11.264 11.2502 11.0395 11.0862C10.815 10.9221 10.6952 10.6565 10.4558 10.1254L10.3953 9.99141C10.2295 9.62363 10.1465 9.43973 10.0098 9.43973Z" fill="#FF6969"/>
</g>
</svg>
