<svg width="26" height="26" viewBox="0 0 26 26" fill="none" xmlns="http://www.w3.org/2000/svg">
<path fill-rule="evenodd" clip-rule="evenodd" d="M6.87842 5.59494C6.87842 2.38521 9.74435 0 12.9999 0C16.2554 0 19.1212 2.38521 19.1212 5.59494C19.1212 8.80465 16.2554 11.1899 12.9999 11.1899C9.74435 11.1899 6.87842 8.80465 6.87842 5.59494ZM12.9999 1.97469C10.5614 1.97469 8.81151 3.71524 8.81151 5.59494C8.81151 7.47462 10.5614 9.21519 12.9999 9.21519C15.4383 9.21519 17.1883 7.47462 17.1883 5.59494C17.1883 3.71524 15.4383 1.97469 12.9999 1.97469Z" fill="#9C9CA1" fill-opacity="0.7"/>
<path fill-rule="evenodd" clip-rule="evenodd" d="M6.41254 14.571C10.4564 12.0141 15.5437 12.0141 19.5876 14.571C21.9564 16.0687 23.4001 18.7332 23.4001 21.6033V22.2714C23.4001 22.534 23.4002 22.7433 23.3802 22.9315C23.2103 24.5345 21.9863 25.8031 20.433 25.9794C20.2506 26 20.048 25.9999 19.7943 25.9999H6.20585C5.95218 25.9999 5.7496 26 5.56724 25.9794C4.01382 25.8031 2.78984 24.5345 2.61993 22.9315C2.59998 22.7433 2.60003 22.534 2.60011 22.2712V21.6033C2.60011 18.7332 4.0438 16.0687 6.41254 14.571ZM18.5702 16.2855C15.1507 14.1234 10.8495 14.1234 7.42997 16.2855C5.64039 17.417 4.54792 19.4314 4.54792 21.6033V22.2173C4.54792 22.5592 4.54939 22.6486 4.55619 22.7129C4.62712 23.3821 5.13729 23.9078 5.78008 23.9808C5.84164 23.9878 5.92769 23.9892 6.25826 23.9892H19.7419C20.0725 23.9892 20.1585 23.9878 20.2202 23.9808C20.8629 23.9078 21.373 23.3821 21.444 22.7129C21.4507 22.6486 21.4523 22.5592 21.4523 22.2173V21.6033C21.4523 19.4314 20.3598 17.417 18.5702 16.2855Z" fill="#9C9CA1" fill-opacity="0.7"/>
</svg>
