<svg width="26" height="26" viewBox="0 0 26 26" fill="none" xmlns="http://www.w3.org/2000/svg">
<path d="M6.8252 5.59494C6.8252 2.38523 9.7162 0 13.0002 0C16.2841 0 19.1752 2.38523 19.1752 5.59494C19.1752 8.80465 16.2841 11.1899 13.0002 11.1899C9.7162 11.1899 6.8252 8.80465 6.8252 5.59494Z" fill="#FF6969"/>
<path d="M4.91668 25.9855C5.05797 26.0012 5.22586 26.0012 5.56168 26.0012H20.4386C20.7744 26.0012 20.9422 26.0012 21.0835 25.9855C22.2951 25.8509 23.2518 24.8822 23.3846 23.6552C23.4001 23.5122 23.4001 23.3422 23.4001 23.0021V22.339C23.4001 19.6165 22.001 17.0904 19.7071 15.6708C15.5897 13.1228 10.4105 13.1228 6.29318 15.6708C3.9992 17.0904 2.6001 19.6165 2.6001 22.339V23.0021C2.6001 23.3422 2.6001 23.5122 2.61559 23.6552C2.74845 24.8822 3.70511 25.8509 4.91668 25.9855Z" fill="#FF6969"/>
</svg>
