<svg width="19" height="18" viewBox="0 0 19 18" fill="none" xmlns="http://www.w3.org/2000/svg">
<path d="M5.52507 1.46178V2.56234C5.52507 2.93331 5.82728 3.23405 6.20007 3.23405C6.57287 3.23405 6.87507 2.93331 6.87507 2.56234V1.36872C7.50412 1.3496 8.22385 1.34961 9.05069 1.34961H9.94927C10.7762 1.34961 11.496 1.3496 12.1251 1.36873V2.56234C12.1251 2.93331 12.4273 3.23405 12.8001 3.23405C13.1729 3.23405 13.4751 2.93331 13.4751 2.56234V1.4618C14.2343 1.55698 14.8746 1.73854 15.4426 2.10446C16.0024 2.46503 16.4791 2.93942 16.8415 3.49643C17.1936 4.03773 17.3758 4.64502 17.4746 5.35891C17.055 5.32614 16.5324 5.28834 15.9266 5.25056C14.2715 5.14733 11.9928 5.044 9.49999 5.044C7.00717 5.044 4.74243 5.14733 3.1012 5.25058C2.47968 5.28968 1.94712 5.3288 1.5249 5.36235C1.6236 4.64698 1.80585 4.03859 2.15854 3.49643C2.52088 2.93942 2.99759 2.46503 3.55734 2.10446C4.12543 1.7385 4.76585 1.55694 5.52507 1.46178Z" fill="#FF6969"/>
<path d="M1.42179 6.7188C1.40002 7.36346 1.40002 8.10543 1.40002 8.96327V9.03652C1.40002 10.3851 1.40001 11.4473 1.4846 12.2952C1.57102 13.1616 1.75099 13.8765 2.15857 14.503C2.52091 15.06 2.99762 15.5344 3.55737 15.8951C4.18699 16.3006 4.90547 16.4797 5.77608 16.5657C6.62816 16.6499 7.69556 16.6499 9.05068 16.6499H9.95227C10.272 16.6499 10.5759 16.6499 10.8645 16.6488C9.80062 15.8297 9.11562 14.5469 9.11562 13.1048C9.11562 10.6316 11.1304 8.62672 13.6156 8.62672C15.3347 8.62672 16.8286 9.58597 17.5863 10.9959C17.6 10.4199 17.6 9.77065 17.6 9.03652V8.96331C17.6 8.10381 17.6 7.36061 17.5782 6.71508C17.1354 6.67939 16.5459 6.63552 15.8422 6.59163C14.2067 6.48961 11.9573 6.3877 9.50002 6.3877C7.04293 6.3877 4.80767 6.48961 3.18641 6.5916C2.46409 6.63704 1.86428 6.68246 1.42179 6.7188Z" fill="#FF6969"/>
<path fill-rule="evenodd" clip-rule="evenodd" d="M13.6166 10.0176C11.9254 10.0176 10.5544 11.411 10.5544 13.1299C10.5544 14.8487 11.9254 16.2421 13.6166 16.2421C14.2246 16.2421 14.7914 16.0619 15.2678 15.7512L15.9596 16.4543C16.2158 16.7147 16.6313 16.7147 16.8876 16.4543C17.1438 16.1938 17.1438 15.7715 16.8876 15.5112L16.1958 14.808C16.5015 14.3238 16.6787 13.7479 16.6787 13.1299C16.6787 11.411 15.3077 10.0176 13.6166 10.0176ZM11.8668 13.1299C11.8668 12.1476 12.6502 11.3514 13.6166 11.3514C14.5829 11.3514 15.3663 12.1476 15.3663 13.1299C15.3663 14.112 14.5829 14.9083 13.6166 14.9083C12.6502 14.9083 11.8668 14.112 11.8668 13.1299Z" fill="#FF6969"/>
</svg>
