<svg width="7" height="5" viewBox="0 0 7 5" fill="none" xmlns="http://www.w3.org/2000/svg">
<path d="M6.47926 0.330402C6.50758 0.296803 6.54121 0.270151 6.57822 0.251967C6.61523 0.233784 6.65489 0.224424 6.69495 0.224424C6.73501 0.224424 6.77467 0.233784 6.81168 0.251967C6.84869 0.270151 6.88231 0.296803 6.91064 0.330402C6.93896 0.364001 6.96143 0.403889 6.97676 0.447788C6.99209 0.491687 6.99998 0.538738 6.99998 0.586254C6.99998 0.63377 6.99209 0.680821 6.97676 0.724721C6.96143 0.76862 6.93896 0.808508 6.91064 0.842107L3.86201 4.45839C3.8337 4.49202 3.80008 4.51869 3.76307 4.53689C3.72606 4.55509 3.68639 4.56445 3.64632 4.56445C3.60626 4.56445 3.56659 4.55509 3.52958 4.53689C3.49257 4.51869 3.45895 4.49202 3.43063 4.45839L0.382005 0.842107C0.324801 0.774251 0.292664 0.682218 0.292664 0.586254C0.292664 0.490291 0.324801 0.398258 0.382005 0.330402C0.43921 0.262546 0.516796 0.224424 0.597696 0.224424C0.678595 0.224424 0.756181 0.262546 0.813386 0.330402L3.64632 3.69129L6.47926 0.330402Z" fill="#9C9CA1"/>
</svg>
