<svg width="19" height="19" viewBox="0 0 19 19" fill="none" xmlns="http://www.w3.org/2000/svg">
<path fill-rule="evenodd" clip-rule="evenodd" d="M9.50039 1.90039C5.02689 1.90039 1.40039 5.52689 1.40039 10.0004C1.40039 14.4739 5.02689 18.1004 9.50039 18.1004C13.9739 18.1004 17.6004 14.4739 17.6004 10.0004C17.6004 5.52689 13.9739 1.90039 9.50039 1.90039ZM11.4495 7.91977C11.681 7.61976 12.1117 7.56417 12.4118 7.79561C12.7118 8.02705 12.7674 8.45788 12.536 8.75789L9.78821 12.3199C9.69452 12.4414 9.58526 12.5831 9.47534 12.6904C9.34436 12.8182 9.12797 12.983 8.81338 12.9986C8.4988 13.0141 8.2672 12.8715 8.12423 12.7573C8.00423 12.6614 7.8815 12.5311 7.77631 12.4194L6.50894 11.0753C6.249 10.7995 6.26178 10.3653 6.53746 10.1054C6.81316 9.84545 7.24737 9.85822 7.5073 10.134L8.7361 11.4372L11.4495 7.91977Z" fill="#FF6969"/>
</svg>
