<svg width="15" height="16" viewBox="0 0 15 16" fill="none" xmlns="http://www.w3.org/2000/svg">
<path fill-rule="evenodd" clip-rule="evenodd" d="M7.5 0.5C3.35787 0.5 0 3.85787 0 8C0 12.1422 3.35787 15.5 7.5 15.5C11.6422 15.5 15 12.1422 15 8C15 3.85787 11.6422 0.5 7.5 0.5ZM8.58083 6.02769C8.827 5.78153 9.22608 5.78153 9.47225 6.02769C9.71842 6.27387 9.71842 6.67298 9.47225 6.91915L8.39142 8L9.47225 9.08083C9.71842 9.327 9.71842 9.72617 9.47225 9.97233C9.22608 10.2185 8.827 10.2185 8.58083 9.97233L7.49996 8.8915L6.4191 9.97233C6.17293 10.2185 5.77381 10.2185 5.52764 9.97233C5.28148 9.72617 5.28148 9.327 5.52764 9.08083L6.60851 8L5.52764 6.91915C5.28148 6.67298 5.28148 6.27387 5.52764 6.02769C5.77381 5.78153 6.17293 5.78153 6.4191 6.02769L7.49996 7.10856L8.58083 6.02769Z" fill="#FFA1A1"/>
</svg>
