<svg width="14" height="11" viewBox="0 0 14 11" fill="none" xmlns="http://www.w3.org/2000/svg">
<path d="M9.90179 0C8.70335 0 7.65406 0.50887 7 1.36902C6.34594 0.50887 5.29665 0 4.09821 0C3.14424 0.00106171 2.22964 0.375727 1.55508 1.0418C0.880517 1.70787 0.501075 2.61095 0.5 3.55292C0.5 7.56428 6.52353 10.8112 6.78004 10.9453C6.84765 10.9812 6.92323 11 7 11C7.07677 11 7.15235 10.9812 7.21995 10.9453C7.47647 10.8112 13.5 7.56428 13.5 3.55292C13.4989 2.61095 13.1195 1.70787 12.4449 1.0418C11.7704 0.375727 10.8558 0.00106171 9.90179 0ZM7 10.0169C5.94027 9.40722 1.42857 6.62964 1.42857 3.55292C1.42949 2.85408 1.71105 2.18412 2.21151 1.68997C2.71196 1.19581 3.39046 0.917793 4.09821 0.916883C5.22701 0.916883 6.17473 1.51056 6.57054 2.46412C6.60552 2.54821 6.66502 2.62012 6.74149 2.67074C6.81796 2.72135 6.90794 2.74837 7 2.74837C7.09206 2.74837 7.18204 2.72135 7.25851 2.67074C7.33498 2.62012 7.39448 2.54821 7.42946 2.46412C7.82527 1.50885 8.77299 0.916883 9.90179 0.916883C10.6095 0.917793 11.288 1.19581 11.7885 1.68997C12.2889 2.18412 12.5705 2.85408 12.5714 3.55292C12.5714 6.62505 8.05857 9.40665 7 10.0169Z" fill="#9C9CA1" fill-opacity="0.7"/>
</svg>
