<svg width="61" height="60" viewBox="0 0 61 60" fill="none" xmlns="http://www.w3.org/2000/svg">
<g filter="url(#filter0_d_525_6019)">
<rect x="54" y="4" width="47" height="47" rx="23.5" transform="rotate(90 54 4)" fill="url(#paint0_linear_525_6019)" shape-rendering="crispEdges"/>
<path fill-rule="evenodd" clip-rule="evenodd" d="M29.9566 17.6797H30.1377C30.6406 17.6797 31.0484 18.087 31.0484 18.5894C31.0484 19.0918 30.6406 19.499 30.1377 19.499H30.0206C27.8544 19.499 26.3156 19.5007 25.1413 19.649C23.99 19.7943 23.3174 20.0675 22.8175 20.5202C22.7218 20.6068 22.6304 20.6981 22.5436 20.7937C22.0905 21.2932 21.817 21.9651 21.6715 23.1151C21.5231 24.2882 21.5214 25.8254 21.5214 27.9894C21.5214 30.1532 21.5231 31.6904 21.6715 32.8635C21.817 34.0135 22.0905 34.6855 22.5436 35.1849C22.6304 35.2804 22.7218 35.3718 22.8175 35.4584C23.3174 35.911 23.99 36.1843 25.1413 36.3296C26.3156 36.4779 27.8544 36.4796 30.0206 36.4796C32.1868 36.4796 33.7256 36.4779 34.8998 36.3296C36.051 36.1843 36.7236 35.911 37.2237 35.4584C37.3193 35.3718 37.4108 35.2804 37.4975 35.1849C37.9506 34.6855 38.2241 34.0135 38.3696 32.8635C38.518 31.6904 38.5197 30.1532 38.5197 27.9894C38.5197 27.4869 38.9273 27.0796 39.4302 27.0796C39.9332 27.0796 40.3409 27.4869 40.3409 27.9894V28.0531C40.3409 30.1389 40.3409 31.7912 40.1765 33.0915C40.0074 34.4281 39.6519 35.5195 38.8469 36.4066C38.7202 36.5464 38.5866 36.6799 38.4467 36.8065C37.5586 37.6106 36.466 37.9658 35.1281 38.1346C33.8264 38.2989 32.1724 38.2989 30.0844 38.2989H29.9567C27.8687 38.2989 26.2147 38.2989 24.913 38.1346C23.5751 37.9658 22.4826 37.6106 21.5944 36.8065C21.4545 36.6799 21.321 36.5464 21.1942 36.4066C20.3892 35.5195 20.0337 34.4281 19.8646 33.0915C19.7002 31.7912 19.7002 30.1389 19.7002 28.0532V27.9254C19.7002 25.8397 19.7002 24.1874 19.8646 22.8871C20.0337 21.5505 20.3892 20.4591 21.1942 19.5719C21.321 19.4322 21.4545 19.2988 21.5944 19.1721C22.4826 18.368 23.5751 18.0128 24.913 17.844C26.2147 17.6797 27.8687 17.6797 29.9566 17.6797Z" fill="white"/>
<path fill-rule="evenodd" clip-rule="evenodd" d="M39.5346 18.4034C39.5445 18.4135 39.5546 18.4235 39.5648 18.4336C39.5749 18.4437 39.585 18.4538 39.595 18.4638C40.0068 18.8751 40.3618 19.2298 40.6236 19.5484C40.9008 19.8859 41.1367 20.256 41.237 20.715C41.321 21.0988 41.321 21.4962 41.237 21.88C41.1367 22.3389 40.9008 22.709 40.6236 23.0466C40.3618 23.3652 40.0068 23.7198 39.595 24.1311L34.8176 28.9036C34.7826 28.9385 34.748 28.9731 34.7138 29.0073C34.1146 29.607 33.6404 30.0816 33.0231 30.3371C32.4057 30.5926 31.7335 30.5919 30.884 30.5912C30.8355 30.591 30.7864 30.591 30.7369 30.591H30.6825C30.1559 30.591 29.6734 30.5912 29.281 30.5385C28.8493 30.4806 28.3925 30.3444 28.017 29.9693C27.6416 29.5943 27.5052 29.138 27.4473 28.7067C27.3946 28.3146 27.3947 27.8327 27.3947 27.3067V27.2524C27.3947 27.2028 27.3947 27.1538 27.3946 27.1054C27.3938 26.2567 27.3932 25.5852 27.6489 24.9685C27.9046 24.3518 28.3797 23.8781 28.9801 23.2795C29.0143 23.2454 29.0489 23.2109 29.0839 23.1759L33.8311 18.4336C33.8413 18.4235 33.8514 18.4135 33.8613 18.4034C34.273 17.9921 34.6281 17.6374 34.9471 17.376C35.2849 17.099 35.6554 16.8634 36.1148 16.7631C36.499 16.6792 36.8968 16.6792 37.2811 16.7631C37.7404 16.8634 38.111 17.099 38.4488 17.376C38.7678 17.6374 39.1228 17.9921 39.5346 18.4034ZM37.2936 18.7824C37.0635 18.5939 36.9544 18.5541 36.8923 18.5405C36.7642 18.5126 36.6316 18.5126 36.5036 18.5405C36.4414 18.5541 36.3324 18.5939 36.1023 18.7824C35.8611 18.9802 35.5694 19.2701 35.1189 19.7201L30.3717 24.4624C29.6173 25.216 29.4309 25.425 29.3315 25.6647C29.2321 25.9044 29.216 26.1846 29.216 27.2524C29.216 27.8508 29.2179 28.2084 29.2523 28.4646C29.2681 28.5821 29.2867 28.6409 29.2976 28.6676C29.3002 28.6737 29.3021 28.6778 29.3034 28.68L29.3049 28.6828L29.3077 28.6844C29.31 28.6856 29.3141 28.6876 29.3202 28.6901C29.3468 28.701 29.4057 28.7196 29.5233 28.7354C29.7798 28.7698 30.1377 28.7717 30.7369 28.7717C31.8057 28.7717 32.0862 28.7555 32.3262 28.6563C32.5662 28.5569 32.7753 28.3707 33.5298 27.6171L38.277 22.8748C38.7274 22.4248 39.0176 22.1334 39.2156 21.8925C39.4044 21.6627 39.4442 21.5538 39.4578 21.4916C39.4857 21.3637 39.4857 21.2312 39.4578 21.1033C39.4442 21.0412 39.4044 20.9323 39.2156 20.7025C39.0176 20.4615 38.7274 20.1701 38.277 19.7201C37.8265 19.2701 37.5348 18.9802 37.2936 18.7824Z" fill="white"/>
</g>
<defs>
<filter id="filter0_d_525_6019" x="0.648648" y="0.189188" width="59.7027" height="59.7027" filterUnits="userSpaceOnUse" color-interpolation-filters="sRGB">
<feFlood flood-opacity="0" result="BackgroundImageFix"/>
<feColorMatrix in="SourceAlpha" type="matrix" values="0 0 0 0 0 0 0 0 0 0 0 0 0 0 0 0 0 0 127 0" result="hardAlpha"/>
<feOffset dy="2.54054"/>
<feGaussianBlur stdDeviation="3.17568"/>
<feComposite in2="hardAlpha" operator="out"/>
<feColorMatrix type="matrix" values="0 0 0 0 0 0 0 0 0 0 0 0 0 0 0 0 0 0 0.3 0"/>
<feBlend mode="normal" in2="BackgroundImageFix" result="effect1_dropShadow_525_6019"/>
<feBlend mode="normal" in="SourceGraphic" in2="effect1_dropShadow_525_6019" result="shape"/>
</filter>
<linearGradient id="paint0_linear_525_6019" x1="96.4146" y1="41.2561" x2="61.4512" y2="10.878" gradientUnits="userSpaceOnUse">
<stop offset="0.1" stop-color="#FF6969" stop-opacity="0.4"/>
<stop offset="0.325" stop-color="#FF6969" stop-opacity="0.55"/>
<stop offset="0.55" stop-color="#FF6969" stop-opacity="0.7"/>
<stop offset="1" stop-color="#FF6969"/>
</linearGradient>
</defs>
</svg>
