<svg width="18" height="19" viewBox="0 0 18 19" fill="none" xmlns="http://www.w3.org/2000/svg">
<path fill-rule="evenodd" clip-rule="evenodd" d="M9.00002 2.64655C5.21475 2.64655 2.14618 5.71512 2.14618 9.50039C2.14618 13.2857 5.21475 16.3543 9.00002 16.3543C12.7853 16.3543 15.8539 13.2857 15.8539 9.50039C15.8539 5.71512 12.7853 2.64655 9.00002 2.64655ZM0.900024 9.50039C0.900024 5.02689 4.52652 1.40039 9.00002 1.40039C13.4736 1.40039 17.1 5.02689 17.1 9.50039C17.1 13.9739 13.4736 17.6004 9.00002 17.6004C4.52652 17.6004 0.900024 13.9739 0.900024 9.50039Z" fill="#FF6969"/>
<path fill-rule="evenodd" clip-rule="evenodd" d="M8.99995 13.4373C8.62716 13.4373 8.32495 13.1351 8.32495 12.7623V9.1623C8.32495 8.78952 8.62716 8.4873 8.99995 8.4873C9.37273 8.4873 9.67495 8.78952 9.67495 9.1623V12.7623C9.67495 13.1351 9.37273 13.4373 8.99995 13.4373Z" fill="#FF6969"/>
<path d="M8.09998 6.4625C8.09998 5.96545 8.50292 5.5625 8.99998 5.5625C9.49705 5.5625 9.89998 5.96545 9.89998 6.4625C9.89998 6.95955 9.49705 7.3625 8.99998 7.3625C8.50292 7.3625 8.09998 6.95955 8.09998 6.4625Z" fill="#FF6969"/>
</svg>
