<svg width="18" height="19" viewBox="0 0 18 19" fill="none" xmlns="http://www.w3.org/2000/svg">
<g id="circle-check">
<path id="Vector" fill-rule="evenodd" clip-rule="evenodd" d="M9.00039 1.90039C4.52689 1.90039 0.900391 5.52689 0.900391 10.0004C0.900391 14.4739 4.52689 18.1004 9.00039 18.1004C13.4739 18.1004 17.1004 14.4739 17.1004 10.0004C17.1004 5.52689 13.4739 1.90039 9.00039 1.90039ZM10.9495 7.91977C11.181 7.61976 11.6117 7.56417 11.9118 7.79561C12.2118 8.02705 12.2674 8.45788 12.036 8.75789L9.28821 12.3199C9.19452 12.4414 9.08526 12.5831 8.97534 12.6904C8.84436 12.8182 8.62797 12.983 8.31338 12.9986C7.9988 13.0141 7.7672 12.8715 7.62423 12.7573C7.50423 12.6614 7.3815 12.5311 7.27631 12.4194L6.00894 11.0753C5.749 10.7995 5.76178 10.3653 6.03746 10.1054C6.31316 9.84545 6.74737 9.85822 7.0073 10.134L8.2361 11.4372L10.9495 7.91977Z" fill="#FF6969"/>
</g>
</svg>
