<svg width="16" height="16" viewBox="0 0 16 16" fill="none" xmlns="http://www.w3.org/2000/svg">
<path fill-rule="evenodd" clip-rule="evenodd" d="M4.23291 3.44305C4.23291 1.46783 5.99657 0 7.99997 0C10.0034 0 11.767 1.46783 11.767 3.44305C11.767 5.41827 10.0034 6.8861 7.99997 6.8861C5.99657 6.8861 4.23291 5.41827 4.23291 3.44305ZM7.99997 1.2152C6.49938 1.2152 5.42251 2.28631 5.42251 3.44305C5.42251 4.59979 6.49938 5.67091 7.99997 5.67091C9.50057 5.67091 10.5775 4.59979 10.5775 3.44305C10.5775 2.28631 9.50057 1.2152 7.99997 1.2152Z" fill="#333D4B"/>
<path fill-rule="evenodd" clip-rule="evenodd" d="M3.94623 8.9672C6.4348 7.39375 9.56541 7.39375 12.054 8.9672C13.5117 9.88888 14.4002 11.5286 14.4002 13.2948V13.7059C14.4002 13.8675 14.4002 13.9963 14.3879 14.1122C14.2833 15.0987 13.5301 15.8793 12.5742 15.9878C12.462 16.0005 12.3373 16.0004 12.1812 16.0004H3.81903C3.66293 16.0004 3.53826 16.0005 3.42604 15.9878C2.47008 15.8793 1.71686 15.0987 1.6123 14.1122C1.60002 13.9963 1.60006 13.8675 1.6001 13.7059V13.2948C1.6001 11.5286 2.48853 9.88888 3.94623 8.9672ZM11.4279 10.0223C9.32357 8.69176 6.67669 8.69176 4.57234 10.0223C3.47106 10.7186 2.79876 11.9583 2.79876 13.2948V13.6727C2.79876 13.8831 2.79967 13.9381 2.80385 13.9776C2.8475 14.3895 3.16145 14.713 3.55702 14.7579C3.5949 14.7622 3.64786 14.7631 3.85128 14.7631H12.1489C12.3524 14.7631 12.4053 14.7622 12.4433 14.7579C12.8388 14.713 13.1527 14.3895 13.1964 13.9776C13.2005 13.9381 13.2015 13.8831 13.2015 13.6727V13.2948C13.2015 11.9583 12.5292 10.7186 11.4279 10.0223Z" fill="#333D4B"/>
</svg>
