<svg width="16" height="16" viewBox="0 0 16 16" fill="none" xmlns="http://www.w3.org/2000/svg">
<path fill-rule="evenodd" clip-rule="evenodd" d="M9.04986 1.58381C8.94218 1.57046 8.7953 1.56955 8.53585 1.56958L7.46535 1.56971C7.20595 1.56974 7.05908 1.57069 6.9515 1.58407C6.90351 1.59003 6.87893 1.59694 6.86747 1.60101C6.85919 1.60396 6.8563 1.60624 6.8563 1.60624C6.85397 1.608 6.8515 1.60992 6.84633 1.61701C6.83964 1.62621 6.82642 1.64692 6.80683 1.69025C6.7624 1.7885 6.7169 1.92795 6.63663 2.17945C6.61493 2.24745 6.59253 2.31828 6.56957 2.39171C6.38248 2.98997 5.96087 3.4356 5.49335 3.7097C5.04289 3.9738 4.49522 4.11029 3.93802 3.98468C3.84024 3.96264 3.74653 3.94193 3.65742 3.92256C3.40245 3.86713 3.25794 3.83669 3.14867 3.82687C3.06105 3.81901 3.04014 3.82942 3.03557 3.83169C3.03557 3.83169 3.01458 3.83653 2.95591 3.91595C2.88696 4.00929 2.80789 4.14525 2.67043 4.38482L2.19903 5.20634C2.06143 5.44616 1.98421 5.58258 1.93871 5.68849C1.91841 5.73574 1.91177 5.76091 1.90959 5.77167C1.9092 5.77353 1.90882 5.77592 1.90882 5.77592L1.90987 5.77859C1.91314 5.7864 1.92291 5.8068 1.94961 5.84502C2.01054 5.93221 2.10672 6.04047 2.28272 6.23577C2.34225 6.30182 2.40506 6.37104 2.47088 6.443C2.87078 6.88017 3.03318 7.4593 3.03318 8.0005C3.03318 8.54147 2.87084 9.12019 2.47116 9.55715C2.40513 9.62931 2.34213 9.69875 2.28243 9.76499C2.1064 9.96035 2.0102 10.0686 1.94927 10.1558C1.92255 10.194 1.91278 10.2144 1.90952 10.2223L1.90846 10.2249C1.90846 10.2249 1.90884 10.2273 1.90923 10.2292C1.91141 10.24 1.91806 10.2652 1.93837 10.3124C1.98388 10.4183 2.06112 10.5548 2.19877 10.7946L2.67024 11.616C2.80771 11.8556 2.88677 11.9915 2.95573 12.0848C3.01363 12.1632 3.0348 12.1688 3.0348 12.1688C3.03936 12.1711 3.06085 12.1817 3.14845 12.1739C3.2577 12.164 3.40218 12.1336 3.65712 12.0782C3.74613 12.0588 3.83972 12.0381 3.93739 12.0161C4.49476 11.8905 5.0426 12.0271 5.49319 12.2912C5.96079 12.5654 6.38249 13.0112 6.56961 13.6095C6.59255 13.6828 6.61492 13.7536 6.6366 13.8216C6.71688 14.0731 6.76237 14.2125 6.80682 14.3109C6.82642 14.3541 6.83963 14.3749 6.84633 14.3841C6.8515 14.3912 6.85379 14.3929 6.85611 14.3947C6.85611 14.3947 6.85918 14.3971 6.86746 14.4001C6.87892 14.4041 6.90351 14.411 6.9515 14.417C7.0591 14.4304 7.20599 14.4313 7.46543 14.4313H8.53585C8.7953 14.4313 8.94218 14.4304 9.04986 14.417C9.09778 14.411 9.12242 14.4041 9.13386 14.4001C9.1421 14.3971 9.14506 14.3949 9.14506 14.3949C9.14738 14.3931 9.14986 14.3912 9.15498 14.3841C9.1617 14.3749 9.1749 14.3541 9.1945 14.3109C9.23898 14.2125 9.28442 14.0731 9.36474 13.8216C9.38634 13.7537 9.40874 13.6831 9.43162 13.6098C9.61882 13.0112 10.0407 12.5654 10.5084 12.2911C10.9591 12.0268 11.5072 11.89 12.0649 12.0157C12.1623 12.0377 12.2556 12.0584 12.3444 12.0776C12.3459 12.078 12.3474 12.0783 12.3489 12.0786C12.3512 12.0791 12.3536 12.0796 12.3558 12.0801C12.6037 12.134 12.7455 12.1636 12.8531 12.1733C12.9407 12.1812 12.9616 12.1708 12.9662 12.1684C12.9662 12.1684 12.988 12.1625 13.0459 12.0842C13.1148 11.9909 13.1939 11.855 13.3313 11.6155L13.8028 10.794C13.9405 10.5542 14.0177 10.4177 14.0632 10.3118C14.0836 10.2646 14.0902 10.2394 14.0924 10.2286C14.0928 10.2268 14.0932 10.2244 14.0932 10.2244L14.0921 10.2217C14.0888 10.2139 14.0791 10.1935 14.0524 10.1552C13.9914 10.068 13.8952 9.95979 13.7192 9.76443C13.6593 9.69795 13.596 9.62827 13.5298 9.55587C13.1304 9.11931 12.9681 8.54099 12.9681 8.0005C12.9681 7.4596 13.1304 6.88082 13.5301 6.4439C13.5961 6.37175 13.6591 6.30235 13.7188 6.23613C13.8948 6.04078 13.9911 5.93247 14.052 5.84525C14.0788 5.80703 14.0885 5.78661 14.0917 5.77881L14.0928 5.77612C14.0928 5.77612 14.0924 5.77373 14.092 5.77186C14.0899 5.76109 14.0832 5.73592 14.0629 5.68865C14.0174 5.58273 13.9401 5.44628 13.8024 5.20643L13.3308 4.38502C13.1933 4.14554 13.1143 4.00962 13.0453 3.91633C12.9875 3.83802 12.9663 3.8324 12.9663 3.8324C12.9617 3.83013 12.9402 3.81944 12.8526 3.8273C12.7434 3.83712 12.5989 3.86756 12.344 3.92296C12.2551 3.94229 12.1616 3.96297 12.064 3.98497C11.5066 4.1106 10.9587 3.97404 10.5082 3.70984C10.0406 3.43567 9.6189 2.98995 9.43178 2.39158C9.40882 2.31815 9.3865 2.24733 9.36474 2.17933C9.2845 1.92777 9.23898 1.78828 9.1945 1.69C9.1749 1.64666 9.1617 1.62595 9.15498 1.61675C9.14986 1.60965 9.14754 1.60787 9.14522 1.60611C9.14522 1.60611 9.14218 1.60369 9.13386 1.60075C9.12242 1.59668 9.09786 1.58977 9.04986 1.58381ZM9.17906 0.422629C9.38226 0.447838 9.59282 0.506017 9.79122 0.656474C9.98722 0.805048 10.1063 0.992633 10.1939 1.18626C10.2707 1.35609 10.3371 1.56414 10.4059 1.77996L10.4143 1.806C10.4367 1.8762 10.4598 1.94929 10.4835 2.02506C10.5649 2.28546 10.7647 2.52281 11.0459 2.68774C11.3123 2.84396 11.588 2.89671 11.8327 2.84156C11.9331 2.81895 12.0292 2.79769 12.1207 2.7778L12.1461 2.77227C12.3664 2.72436 12.5761 2.67874 12.7587 2.66234C12.9656 2.64375 13.1816 2.65712 13.4049 2.75885C13.6314 2.86201 13.7897 3.02294 13.9184 3.19709C14.0325 3.35147 14.1453 3.54803 14.2644 3.75535L14.7633 4.62455C14.8822 4.83146 14.9952 5.02827 15.0714 5.20552C15.157 5.40479 15.2205 5.63188 15.1946 5.89605C15.1689 6.15789 15.0658 6.3639 14.9432 6.53934C14.836 6.69279 14.6901 6.85455 14.5398 7.02137L14.5212 7.04203C14.4596 7.11028 14.3948 7.18178 14.3268 7.25611C14.1681 7.42956 14.0756 7.69289 14.0756 8.0005C14.0756 8.30762 14.168 8.57051 14.3264 8.74363C14.3946 8.81827 14.4598 8.89003 14.5216 8.95859L14.5402 8.97923C14.6905 9.14603 14.8364 9.30771 14.9436 9.46115C15.0661 9.63659 15.1693 9.84259 15.195 10.1044C15.2209 10.3685 15.1574 10.5956 15.0718 10.7948C14.9956 10.972 14.8827 11.1688 14.7639 11.3757L14.2649 12.245C14.146 12.4524 14.0332 12.649 13.919 12.8034C13.7904 12.9776 13.632 13.1385 13.4055 13.2417C13.1821 13.3435 12.9661 13.3568 12.7592 13.3383C12.5766 13.3219 12.3668 13.2762 12.1466 13.2283L12.1097 13.2203C12.0219 13.2012 11.9296 13.1808 11.8337 13.1592C11.5887 13.104 11.3128 13.1568 11.0462 13.3132C10.7647 13.4782 10.5647 13.7157 10.4832 13.9764C10.4596 14.052 10.4366 14.1249 10.4142 14.1949L10.4059 14.2209C10.3371 14.4367 10.2707 14.6448 10.1939 14.8145C10.1063 15.0081 9.98722 15.1957 9.7913 15.3443C9.5929 15.4948 9.38234 15.5529 9.17922 15.5781C8.99906 15.6005 8.78586 15.6005 8.56193 15.6005H7.43941C7.21545 15.6005 7.00226 15.6005 6.82212 15.5781C6.61896 15.5529 6.40843 15.4948 6.21003 15.3443C6.01411 15.1957 5.89496 15.0081 5.80741 14.8145C5.73061 14.6448 5.66425 14.4367 5.59542 14.2209L5.58711 14.1949C5.56472 14.1248 5.54164 14.0517 5.51797 13.976C5.43654 13.7156 5.23676 13.4783 4.95547 13.3133C4.68903 13.1572 4.41337 13.1044 4.16864 13.1596C4.06825 13.1822 3.97201 13.2035 3.88047 13.2233L3.85503 13.2288C3.63475 13.2768 3.425 13.3224 3.24237 13.3388C3.03547 13.3574 2.81948 13.344 2.59608 13.2423C2.36956 13.1391 2.21124 12.9781 2.08253 12.804C1.96843 12.6496 1.85564 12.453 1.73666 12.2456L1.23775 11.3764C1.11897 11.1695 1.00597 10.9727 0.929813 10.7954C0.844197 10.5961 0.780716 10.3691 0.806645 10.1049C0.832341 9.84315 0.935485 9.63715 1.05805 9.46171C1.16527 9.30827 1.31109 9.14651 1.46146 8.97971L1.48007 8.95907C1.54161 8.89083 1.60651 8.81931 1.67454 8.74491C1.83321 8.57147 1.92571 8.3081 1.92571 8.0005C1.92571 7.69253 1.83312 7.42888 1.67424 7.25519C1.60643 7.18106 1.54173 7.10975 1.48037 7.04167C1.47416 7.03478 1.46796 7.0279 1.46176 7.02102C1.31141 6.85426 1.16561 6.69252 1.05841 6.53911C0.935853 6.36372 0.832717 6.15776 0.807013 5.89598C0.781072 5.63187 0.844533 5.40482 0.930117 5.20558C1.00625 5.02835 1.11921 4.83157 1.23796 4.62468C1.24257 4.61666 1.24718 4.60862 1.25181 4.60055L1.72321 3.77904C1.72774 3.77113 1.73227 3.76323 1.73679 3.75535C1.85576 3.54796 1.96855 3.35133 2.08265 3.1969C2.21136 3.02268 2.36968 2.86168 2.59623 2.75847C2.81964 2.6567 3.03565 2.64332 3.24257 2.6619C3.42522 2.67831 3.63498 2.72394 3.8553 2.77186C3.86376 2.7737 3.87225 2.77555 3.88075 2.7774C3.88075 2.7774 3.87891 2.77541 3.90128 2.78273L3.92183 2.78806L3.88075 2.7774C3.97239 2.79732 4.06875 2.81862 4.16927 2.84127C4.41385 2.89641 4.68937 2.8437 4.95566 2.68756C5.23684 2.52271 5.43653 2.28546 5.51793 2.02517C5.54163 1.94939 5.56474 1.87629 5.58714 1.8061C5.58991 1.79741 5.59268 1.78873 5.59545 1.78006C5.66428 1.5643 5.73063 1.3563 5.80743 1.18651C5.89497 0.992921 6.0141 0.805376 6.20999 0.656813C6.40836 0.506368 6.61886 0.448159 6.822 0.42291C7.0021 0.400523 7.21527 0.400529 7.4392 0.400535C7.44786 0.400535 7.45653 0.400535 7.46523 0.400534L8.5617 0.400397C8.7857 0.400336 8.9989 0.400278 9.17906 0.422629Z" fill="#333D4B"/>
<path fill-rule="evenodd" clip-rule="evenodd" d="M8.00203 6.33811C7.08461 6.33811 6.34087 7.08197 6.34087 7.99958C6.34087 8.91719 7.08461 9.66103 8.00203 9.66103C8.91956 9.66103 9.66324 8.91719 9.66324 7.99958C9.66324 7.08197 8.91956 6.33811 8.00203 6.33811ZM5.2334 7.99958C5.2334 6.47024 6.47297 5.23047 8.00203 5.23047C9.53116 5.23047 10.7708 6.47024 10.7708 7.99958C10.7708 9.52887 9.53116 10.7687 8.00203 10.7687C6.47297 10.7687 5.2334 9.52887 5.2334 7.99958Z" fill="#333D4B"/>
</svg>
