<svg width="16" height="16" viewBox="0 0 16 16" fill="none" xmlns="http://www.w3.org/2000/svg">
<path fill-rule="evenodd" clip-rule="evenodd" d="M3.60978 2.24695C2.28551 2.75609 1.23077 4.01732 1.23077 5.68838C1.23077 7.01023 1.82664 8.27745 2.78088 9.50074C3.7353 10.7243 5.00884 11.854 6.28093 12.8951C6.79892 13.319 7.1449 13.6008 7.4331 13.7829C7.70726 13.9563 7.86563 13.9971 8.00003 13.9971C8.13443 13.9971 8.29284 13.9563 8.567 13.7829C8.85516 13.6008 9.20116 13.319 9.71916 12.8951C10.9912 11.854 12.2648 10.7243 13.2192 9.50074C14.1734 8.27745 14.7693 7.01023 14.7693 5.68838C14.7693 4.01732 13.7145 2.75609 12.3903 2.24695C11.078 1.74242 9.53428 1.98499 8.48884 3.3219C8.37244 3.47081 8.19172 3.55815 8.00003 3.55815C7.80837 3.55815 7.62765 3.47081 7.51122 3.3219C6.46581 1.98499 4.92199 1.74242 3.60978 2.24695ZM8.00003 2.04954C6.60792 0.719244 4.73144 0.522276 3.15949 1.12666C1.40681 1.80053 0 3.47934 0 5.68838C0 7.37501 0.760669 8.89546 1.80235 10.2309C2.84386 11.5661 4.20563 12.7663 5.49111 13.8183L5.52024 13.8421C6.00139 14.2359 6.40539 14.5665 6.76496 14.7939C7.14581 15.0346 7.53843 15.2008 8.00003 15.2008C8.46164 15.2008 8.85428 15.0346 9.23508 14.7939C9.59468 14.5665 9.99868 14.2359 10.4798 13.8421L10.5089 13.8183C11.7944 12.7663 13.1562 11.5661 14.1977 10.2309C15.2394 8.89546 16.0001 7.37501 16.0001 5.68838C16.0001 3.47934 14.5933 1.80053 12.8406 1.12666C11.2686 0.522276 9.39212 0.719244 8.00003 2.04954Z" fill="#333D4B"/>
</svg>
