<svg width="16" height="16" viewBox="0 0 16 16" fill="none" xmlns="http://www.w3.org/2000/svg">
<path fill-rule="evenodd" clip-rule="evenodd" d="M12.1264 2.03677C12.1362 2.04553 12.146 2.05433 12.1559 2.06315L12.873 2.70539C12.8828 2.71422 12.8927 2.72301 12.9024 2.73177C13.2991 3.08699 13.6409 3.39304 13.8815 3.67477C14.1393 3.97669 14.3404 4.31698 14.3632 4.74815C14.386 5.17932 14.222 5.53875 13.9974 5.86595C13.7879 6.17126 13.4803 6.51135 13.1233 6.90605L7.01038 13.6655C6.99081 13.6871 6.97148 13.7085 6.95238 13.7296C6.61581 14.1025 6.3496 14.3973 5.99685 14.5815C5.64411 14.7656 5.24899 14.8158 4.74943 14.8794C4.72109 14.883 4.6924 14.8867 4.66337 14.8904L3.25915 15.0703C2.86224 15.1212 2.50333 15.1672 2.21086 15.1636C1.89187 15.1596 1.54456 15.0976 1.25305 14.8366C0.961533 14.5756 0.863117 14.2384 0.825685 13.9231C0.791356 13.634 0.799654 13.274 0.808837 12.8759L0.841149 11.4673C0.841821 11.4382 0.842453 11.4094 0.843085 11.381C0.854141 10.8799 0.862893 10.4836 1.00982 10.1152C1.15676 9.74674 1.42348 9.45234 1.7607 9.0801C1.77984 9.05898 1.7992 9.03762 1.81878 9.01594L7.9052 2.28589C7.91406 2.27608 7.9229 2.26631 7.93171 2.25657C8.28865 1.86182 8.59617 1.52171 8.8793 1.28231C9.18274 1.02574 9.52466 0.825593 9.95794 0.802889C10.3912 0.780188 10.7524 0.943489 11.0812 1.16693C11.388 1.37542 11.7298 1.68152 12.1264 2.03677ZM10.4023 2.15632C10.1847 2.00847 10.0859 1.99592 10.0212 1.99931C9.9565 2.0027 9.8597 2.0255 9.6589 2.19527C9.44482 2.37629 9.19114 2.65494 8.8001 3.08733L2.71368 9.81746C2.29076 10.2851 2.18602 10.4138 2.12885 10.5571C2.07168 10.7005 2.0592 10.8657 2.04477 11.4947L2.01335 12.864C2.00303 13.3141 1.99818 13.5877 2.0213 13.7824C2.03199 13.8726 2.04608 13.9172 2.05438 13.9369C2.05625 13.9413 2.0577 13.9442 2.0586 13.9459C2.06034 13.9466 2.06335 13.9477 2.06799 13.9491C2.08855 13.9552 2.13463 13.9645 2.2258 13.9656C2.42281 13.968 2.69578 13.9345 3.14448 13.877L4.50964 13.7021C5.13667 13.6218 5.30043 13.592 5.43767 13.5204C5.57492 13.4488 5.69258 13.3316 6.11549 12.864L12.2019 6.13391C12.5929 5.70152 12.8448 5.42116 13.0032 5.19031C13.1517 4.97381 13.1644 4.87555 13.161 4.81115C13.1576 4.74675 13.1347 4.65035 12.964 4.45058C12.7821 4.23755 12.5021 3.98507 12.0676 3.59593L11.3505 2.95369C10.9159 2.56456 10.6343 2.31397 10.4023 2.15632Z" fill="#333D4B"/>
<path fill-rule="evenodd" clip-rule="evenodd" d="M8.37793 14.601C8.37793 14.2702 8.64745 14.002 8.97985 14.002H14.5982C14.9307 14.002 15.2002 14.2702 15.2002 14.601C15.2002 14.9319 14.9307 15.2 14.5982 15.2H8.97985C8.64745 15.2 8.37793 14.9319 8.37793 14.601Z" fill="#333D4B"/>
</svg>
