<svg width="16" height="16" viewBox="0 0 16 16" fill="none" xmlns="http://www.w3.org/2000/svg">
<path d="M7.20597 4.96484C6.84682 4.96484 6.55566 5.25651 6.55566 5.61629C6.55566 5.97607 6.84682 6.26773 7.20597 6.26773H8.79208C9.15128 6.26773 9.4424 5.97607 9.4424 5.61629C9.4424 5.25651 9.15128 4.96484 8.79208 4.96484H7.20597Z" fill="#333D4B"/>
<path d="M6.81047 6.95117C6.45132 6.95117 6.16016 7.24283 6.16016 7.60261C6.16016 7.96239 6.45132 8.25407 6.81047 8.25407H9.18967C9.5488 8.25407 9.84 7.96239 9.84 7.60261C9.84 7.24283 9.5488 6.95117 9.18967 6.95117H6.81047Z" fill="#333D4B"/>
<path fill-rule="evenodd" clip-rule="evenodd" d="M8.0004 0C6.42998 0 5.22517 0.554421 4.44224 1.656C3.68773 2.71761 3.38477 4.20617 3.38477 5.96719C3.38477 7.73062 3.6888 9.29476 4.42783 10.4363C5.1926 11.6177 6.39063 12.2927 8.0004 12.2927C9.61017 12.2927 10.8082 11.6177 11.573 10.4363C12.312 9.29476 12.616 7.73062 12.616 5.96719C12.616 4.20617 12.3131 2.71761 11.5586 1.656C10.7756 0.554421 9.57081 0 8.0004 0ZM5.43013 2.3357C5.94853 1.6063 6.75022 1.18605 8.0004 1.18605C9.25057 1.18605 10.0523 1.6063 10.5707 2.3357C11.1175 3.105 11.4106 4.30352 11.4106 5.96719C11.4106 7.62848 11.1185 8.9306 10.5563 9.79908C10.0198 10.6278 9.21129 11.1066 8.0004 11.1066C6.78949 11.1066 5.98106 10.6278 5.44454 9.79908C4.88229 8.9306 4.59023 7.62848 4.59023 5.96719C4.59023 4.30352 4.88336 3.105 5.43013 2.3357Z" fill="#333D4B"/>
<path d="M2.19992 6.35547C1.8668 6.35547 1.60059 6.63659 1.60059 6.97854C1.60059 8.1746 1.82659 10.0056 2.73989 11.5593C3.59967 13.0221 5.04887 14.199 7.3503 14.3854V15.3486C7.3503 15.7083 7.64145 16 8.00061 16C8.35974 16 8.65094 15.7083 8.65094 15.3486V14.3873C10.9334 14.2162 12.3874 13.1386 13.2566 11.7093C14.1779 10.194 14.4006 8.35389 14.4006 6.97854C14.4006 6.63659 14.1344 6.35547 13.8013 6.35547C13.4682 6.35547 13.202 6.63659 13.202 6.97854C13.202 8.25133 12.9897 9.81597 12.2434 11.0434C11.525 12.2248 10.2712 13.1649 8.00061 13.1649C5.75201 13.1649 4.49186 12.1501 3.7627 10.9096C3.00829 9.62605 2.79925 8.05228 2.79925 6.97854C2.79925 6.63659 2.53303 6.35547 2.19992 6.35547Z" fill="#333D4B"/>
</svg>
